<svg version="1.1" xmlns="http://www.w3.org/2000/svg" viewBox="0 0 106.05526123098473 107.31443396345381" width="106.05526123098473" height="107.31443396345381">
  <!-- svg-source:excalidraw -->
  
  <defs>
    <style class="style-fonts">
      @font-face {
        font-family: "Virgil";
        src: url("https://excalidraw.com/Virgil.woff2");
      }
      @font-face {
        font-family: "Cascadia";
        src: url("https://excalidraw.com/Cascadia.woff2");
      }
    </style>
  </defs>
  <rect x="0" y="0" width="106.05526123098473" height="107.31443396345381" fill="#ffffff"/><g stroke-linecap="round" transform="translate(40.33518247678876 10) rotate(0 2.6982421875 2.88671875)"><path d="M4.1 -0.25 C4.7 -0.4, 5.51 -0.03, 5.61 0.42 C5.7 0.87, 4.76 1.61, 4.68 2.45 C4.59 3.28, 5.45 4.79, 5.11 5.42 C4.78 6.06, 3.33 6.45, 2.67 6.25 C2.02 6.05, 1.54 4.63, 1.18 4.23 C0.81 3.84, 0.61 4.33, 0.47 3.88 C0.33 3.43, -0.02 2.24, 0.33 1.53 C0.68 0.81, 2.03 -0.32, 2.58 -0.41 C3.13 -0.51, 3.56 0.89, 3.64 0.95 C3.72 1.02, 3.02 0.12, 3.07 -0.03 M2.87 -0.36 C3.33 -0.07, 5.91 2.18, 6.21 2.99 C6.52 3.8, 5.01 4.07, 4.71 4.5 C4.42 4.93, 4.68 5.59, 4.45 5.56 C4.22 5.53, 3.92 4.32, 3.31 4.33 C2.7 4.33, 1.58 5.75, 0.8 5.57 C0.03 5.39, -1.45 3.88, -1.32 3.23 C-1.18 2.59, 0.9 2.09, 1.63 1.71 C2.37 1.32, 2.63 1.31, 3.11 0.93 C3.59 0.54, 4.49 -0.29, 4.5 -0.59 C4.52 -0.89, 3.11 -1.08, 3.18 -0.87" stroke="#000000" stroke-width="4" fill="none"/></g><g stroke-linecap="round" transform="translate(67.21897153928876 14.2587890625) rotate(0 3.5322265625 2.7001953125)"><path d="M2.11 -0.19 C2.94 -0.38, 4.89 -0.89, 5.55 -0.61 C6.21 -0.33, 5.86 0.99, 6.08 1.48 C6.31 1.97, 6.93 1.79, 6.92 2.35 C6.92 2.91, 6.71 4.39, 6.07 4.83 C5.43 5.27, 3.85 5, 3.08 5 C2.3 4.99, 1.82 5.22, 1.43 4.82 C1.04 4.42, 0.82 3.22, 0.74 2.61 C0.66 2, 0.58 1.65, 0.94 1.15 C1.29 0.66, 2.64 -0.1, 2.85 -0.36 C3.07 -0.61, 2.24 -0.46, 2.25 -0.37 M5.01 1.29 C5.53 1.25, 4.37 -0.49, 4.79 -0.46 C5.2 -0.43, 7.26 0.84, 7.49 1.48 C7.72 2.11, 6.59 2.94, 6.18 3.37 C5.76 3.8, 5.78 3.56, 4.99 4.05 C4.21 4.54, 2.04 6.46, 1.46 6.32 C0.89 6.17, 1.52 3.75, 1.54 3.18 C1.56 2.61, 1.76 3.49, 1.56 2.9 C1.35 2.31, 0.15 -0.07, 0.3 -0.34 C0.45 -0.61, 1.65 1.37, 2.47 1.27 C3.29 1.17, 4.99 -0.79, 5.24 -0.94" stroke="#000000" stroke-width="4" fill="none"/></g><g stroke-linecap="round"><g transform="translate(10.80588560178876 49.86560975827008) rotate(0 41.7940930977855 18.6862075296806)"><path d="M-0.81 0.7 C0.44 4.52, 4.99 16.81, 7.82 23.25 C10.64 29.68, 12.1 35.49, 16.15 39.31 C20.19 43.13, 25.53 44.89, 32.1 46.17 C38.67 47.45, 49.93 47.86, 55.59 46.98 C61.24 46.09, 62.58 44.24, 66.04 40.85 C69.49 37.46, 73.39 31.74, 76.32 26.65 C79.24 21.56, 82.4 16.02, 83.57 10.31 C84.75 4.61, 83.36 -4.28, 83.37 -7.59 M0.97 0.02 C2.01 3.43, 3.86 14.46, 6.78 21.23 C9.7 28.01, 14.16 36.33, 18.49 40.68 C22.83 45.03, 26.74 46.72, 32.78 47.32 C38.81 47.91, 48.93 45.45, 54.7 44.25 C60.46 43.05, 63.68 43.21, 67.38 40.12 C71.07 37.02, 74.33 30.63, 76.88 25.69 C79.43 20.75, 81.28 16.17, 82.67 10.49 C84.07 4.81, 84.96 -4.9, 85.25 -8.38" stroke="#000000" stroke-width="4" fill="none"/></g></g><mask/></svg>